<svg width="181" height="179" viewBox="0 0 181 179" fill="none" xmlns="http://www.w3.org/2000/svg">
<path d="M121.487 8.06864L118.652 15.9929L114.286 5.49264L110.61 4.1777L106.837 14.7233L109.549 15.6933L112.378 7.78413L116.735 18.2639L120.426 19.5843L124.198 9.03868L121.487 8.06864Z" fill="white"/>
<path d="M143.98 24.0011L145.432 22.0705L135.971 14.9521L129.237 23.9019L131.539 25.6334L133.645 22.8334L140.038 27.6431L141.5 25.6997L135.108 20.89L136.82 18.6142L143.98 24.0011Z" fill="white"/>
<path d="M162.591 41.3216L154.445 30.2321L152.498 31.6624L155.718 36.0467L148.639 41.247L150.344 43.568L157.423 38.3677L160.644 42.7519L162.591 41.3216Z" fill="white"/>
<path d="M176.45 84.1228L175.989 80.2622L167.585 76.5434L174.878 70.9522L174.418 67.0916L163.297 68.4182L163.638 71.2779L171.264 70.3682L164.189 75.9011L164.436 77.9665L172.613 81.6801L164.987 82.5897L165.328 85.4494L176.45 84.1228Z" fill="white"/>
<path d="M162.52 107.86L161.783 110.958L174.02 107.918L174.92 104.135L165.363 95.9219L164.629 99.0038L166.67 100.723L165.117 107.245L162.52 107.86ZM168.508 102.263L172.398 105.541L167.451 106.699L168.508 102.263Z" fill="white"/>
<path d="M157.696 134.912C159.825 136.215 162.114 135.571 163.442 133.401L168.035 125.895L158.482 120.049L156.979 122.505L159.531 124.067L157.109 128.025L153.613 128.005L151.842 130.898L155.758 130.875C155.478 132.467 156.14 133.96 157.696 134.912ZM164.471 127.09L161.798 131.458C161.347 132.195 160.646 133.341 159.199 132.456C157.766 131.579 158.468 130.432 158.919 129.695L161.591 125.328L164.471 127.09Z" fill="white"/>
<path d="M141.93 157.118L145.253 154.284L147.558 144.683L151.327 149.102L153.519 147.233L146.25 138.712L144.059 140.581L145.45 142.212L144.463 146.356L137.693 146.012L134.661 148.597L143.862 148.93L141.93 157.118Z" fill="white"/>
<path d="M119.147 166.775L120.038 168.883L130.943 164.271L126.581 153.955L115.676 158.567L116.567 160.675L124.819 157.185L125.704 159.277L117.452 162.767L118.262 164.683L126.515 161.193L127.4 163.285L119.147 166.775Z" fill="white"/>
<path d="M94.7763 174.064L108.456 172.583L108.196 170.181L102.788 170.767L101.842 162.034L98.9787 162.344L99.9245 171.077L94.5161 171.663L94.7763 174.064Z" fill="white"/>
<path d="M73.4573 172.332L82.0929 174.025L84.2477 163.035L81.4215 162.48L80.8458 165.417L75.0364 164.278C72.54 163.788 70.5207 165.023 70.0405 167.472C69.5603 169.922 70.9608 171.843 73.4573 172.332ZM75.3567 166.802L80.381 167.787L79.7315 171.1L74.7072 170.115C73.8593 169.949 72.5404 169.691 72.8667 168.026C73.1899 166.378 74.5088 166.636 75.3567 166.802Z" fill="white"/>
<path d="M59.0367 158.692L55.0076 166.497L57.5667 167.818L62.7041 157.866L52.4675 152.582L51.3593 154.729L59.0367 158.692Z" fill="white"/>
<path d="M36.2931 139.618L34.0251 137.383L30.2899 149.426L33.0594 152.155L45.0346 148.231L42.778 146.008L40.2499 146.864L35.4746 142.159L36.2931 139.618ZM37.9816 147.639L33.1625 149.269L34.7334 144.438L37.9816 147.639Z" fill="white"/>
<path d="M22.9333 132.543C26.2602 130.861 27.135 128.052 24.9114 123.654C22.8973 119.67 20.3588 118.444 17.3302 119.652L18.6514 122.265C20.4019 121.685 21.6797 122.616 22.7554 124.744C24.0692 127.343 23.6899 128.933 21.6338 129.973C19.5919 131.005 18.1079 130.375 16.7868 127.762C15.704 125.62 15.7041 124.06 17.1949 123.001L15.8738 120.388C13.1194 122.104 12.6166 124.868 14.6307 128.852C16.8543 133.25 19.6206 134.218 22.9333 132.543Z" fill="white"/>
<path d="M7.38519 98.2744L5.13066 98.6643L7.14853 110.331L18.1847 108.422L16.1668 96.7555L13.9123 97.1454L15.4393 105.974L13.2006 106.362L11.6735 97.5327L9.62395 97.8871L11.151 106.716L8.91222 107.103L7.38519 98.2744Z" fill="white"/>
<path d="M20.3973 60.1374L18.1831 61.2741C17.5118 60.4869 16.5544 59.9101 15.3359 59.5183C11.8173 58.3869 9.2162 59.7858 7.71255 64.462C6.20401 69.1534 7.49194 71.786 11.0257 72.9224C14.5748 74.0636 17.171 72.6799 18.6795 67.9884C19.184 66.4196 19.3773 65.0867 19.274 63.9443L21.7098 62.6939L20.3973 60.1374ZM11.9074 70.1806C9.7292 69.4802 9.09177 68.0652 10.0126 65.2016C10.9334 62.338 12.2913 61.5645 14.4543 62.26C16.6324 62.9604 17.2954 64.4005 16.3795 67.2489C15.4636 70.0972 14.1008 70.8859 11.9074 70.1806Z" fill="white"/>
<path d="M24.7269 36.3691L22.8611 35.0448L16.0083 44.7002L25.1417 51.1825L31.9945 41.5272L30.1287 40.2029L24.9428 47.5097L23.09 46.1947L28.2759 38.888L26.5797 37.6841L21.3938 44.9908L19.5411 43.6758L24.7269 36.3691Z" fill="white"/>
<path d="M41.4844 20.3051L40.0542 18.5192L30.8126 25.9205L37.8138 34.6625L47.0554 27.2612L45.6251 25.4754L38.6315 31.0763L37.2113 29.3029L44.2049 23.702L42.9047 22.0785L35.9111 27.6794L34.4908 25.906L41.4844 20.3051Z" fill="white"/>
<path d="M63.7137 11.9013C64.0036 11.1146 64.0172 10.2827 63.7275 9.55418C63.1187 8.02278 61.9113 7.10813 59.5473 8.04803L50.3886 11.6894L54.5266 22.097L64.0421 18.3137C66.4061 17.3738 66.9236 15.6873 66.226 13.9329C65.7472 12.7286 64.8245 12.0968 63.7137 11.9013ZM53.8333 12.5582L59.3494 10.3651C60.0779 10.0754 60.7321 9.81535 61.1577 10.8858C61.5892 11.9712 60.935 12.2313 60.2214 12.515L60.2065 12.521L54.6905 14.714L53.8333 12.5582ZM62.5662 16.5072L56.3811 18.9663L55.5062 16.7658L61.6913 14.3067C62.405 14.023 63.0592 13.7629 63.4966 14.8631C63.934 15.9633 63.2799 16.2234 62.5662 16.5072Z" fill="white"/>
</svg>
